<?xml version="1.0" encoding="utf-8"?>
<!-- Generator: Adobe Illustrator 24.2.3, SVG Export Plug-In . SVG Version: 6.00 Build 0)  -->

<svg xmlns="http://www.w3.org/2000/svg" width="86.29996337890624px" height="147.2px" viewBox="206.8500183105469 1.4000000000000057 86.29996337890624 147.2" style="background: rgba(0, 0, 0, 0);" preserveAspectRatio="xMidYMid"><defs><filter id="editing-hole" x="-100%" y="-100%" width="300%" height="300%"><feFlood flood-color="#000000" result="black"/><feMorphology operator="dilate" radius="2" in="SourceGraphic" result="erode"/><feGaussianBlur in="erode" stdDeviation="4" result="blur"/><feOffset in="blur" dx="2" dy="2" result="offset"/><feComposite operator="atop" in="offset" in2="black" result="merge"/><feComposite operator="in" in="merge" in2="SourceGraphic" result="inner-shadow"/></filter></defs><g filter="url(#editing-hole)"><g transform="translate(225.50001525878906, 96.82999992370605)"><path d="M15.41 0.06L15.41 0.06Q17.34 0.06 17.38 0.72L17.38 0.72L17.78 0L17.78 0Q17.38-5.28 17.38-12.69L17.38-12.69L17.38-12.69Q17.38-18 16.97-27.63L16.97-27.63L16.97-27.63Q16.56-37.19 16.56-42.56L16.56-42.56L16-42.78L16-42.78Q15.44-42.94 15.41-42.94L15.41-42.94L15.41-42.94Q15-42.94 14.66-42.64L14.66-42.64L14.66-42.64Q14.31-42.34 14.31-41.97L14.31-41.97L14.31-41.97Q14.31-39.22 14.75-33.16L14.75-33.16L14.75-33.16Q15.16-27.47 15.16-24.31L15.16-24.31L15.16-24.31Q15.16-23.16 14.63-22.69L14.63-22.69L14.63-22.69Q14.09-22.22 12.84-22.22L12.84-22.22L12.63-22.22L12.63-22.22Q7.72-22.22 7.72-22.97L7.72-22.97L7.72-22.97Q7.72-26 7.84-30.72L7.84-30.72L7.84-30.72Q7.97-35.38 7.97-38.59L7.97-38.59L7.97-38.59Q7.97-42.31 6.69-42.31L6.69-42.31L6.69-42.31Q6.25-42.31 5.92-41.94L5.92-41.94L5.92-41.94Q5.59-41.56 5.59-41.09L5.59-41.09L5.59-41.09Q5.59-38.94 5.84-33.63L5.84-33.63L5.84-33.63Q6.06-28.94 6.06-26.13L6.06-26.13L6.06-26.13Q6.06-22.47 5.75-21.88L5.75-21.88L5.75-21.88Q5.94-21.47 5.94-15.63L5.94-15.63L5.88-9.78L5.81-3.91L5.81-3.91Q5.81-0.06 7.22-0.06L7.22-0.06L7.22-0.06Q7.75-0.06 8.02-0.55L8.02-0.55L8.02-0.55Q8.28-1.03 8.28-1.72L8.28-1.72L8.28-1.72Q8.28-3.50 8.09-7.06L8.09-7.06L8.09-7.06Q7.91-10.63 7.91-12.41L7.91-12.41L7.72-12.69L7.72-12.69Q7.72-14.06 7.81-16.72L7.81-16.72L7.81-16.72Q7.91-19.41 7.91-20.75L7.91-20.75L8.56-21L8.56-21Q9.31-21 10.59-20.69L10.59-20.69L10.59-20.69Q12.03-20.34 12.66-20.34L12.66-20.34L12.66-20.34Q13.38-20.34 13.94-20.53L13.94-20.53L14.94-20.28L14.94-20.28Q15.16-19 15.16-17.91L15.16-17.91L14.94-17.34L15.09-17.09L15.09-17.09Q15.09-13.47 15.41 0.06L15.41 0.06ZM13.34-22.97L13.47-22.97L13.34-23.09L13.34-22.97ZM27.97-19.47L27.97-19.47Q27.97-15.69 28.75-9.44L28.75-9.44L28.75-9.44Q29.28-4.97 29.97-2.97L29.97-2.97L29.97-2.97Q30.66-0.97 32.06-0.27L32.06-0.27L32.06-0.27Q33.47 0.44 36.41 0.44L36.41 0.44L36.41 0.44Q39.63 0.44 42.94-2.88L42.94-2.88L42.94-2.88Q42.94-4.88 42.81-7.78L42.81-7.78L42.81-7.78Q42.69-10.69 42.69-12.69L42.69-12.69L42.69-12.69Q42.69-13.50 43.06-15.09L43.06-15.09L43.06-15.09Q43.41-16.75 43.41-17.47L43.41-17.47L43.41-17.47Q43.41-17.91 42.66-18.19L42.66-18.19L42.66-18.19Q41.97-18.44 40.75-18.59L40.75-18.59L40.75-18.59Q38.84-18.75 37.50-18.75L37.50-18.75L37.50-18.75Q35.97-18.75 35.97-17.66L35.97-17.66L35.97-17.66Q35.97-16.91 37.50-16.91L37.50-16.91L37.50-16.91Q37.94-16.91 38.22-16.94L38.22-16.94L38.72-16.97L38.72-16.97Q40.31-16.97 40.97-16.31L40.97-16.31L40.97-12.78L40.97-12.78Q40.97-10.38 40.81-7.91L40.81-7.91L40.81-7.91Q40.72-6.56 40.47-5.56L40.47-5.56L40.47-5.56Q40.22-4.56 39.78-3.44L39.78-3.44L39.78-3.44Q39.38-2.47 38.69-1.94L38.69-1.94L38.69-1.94Q38-1.41 37.13-1.41L37.13-1.41L37.13-1.41Q34.91-1.41 33.63-2.50L33.63-2.50L33.63-2.50Q32.47-3.50 32.03-5.08L32.03-5.08L32.03-5.08Q31.59-6.66 31.47-8.88L31.47-8.88L31.47-8.88Q31.28-11.56 31.13-12.92L31.13-12.92L31.13-12.92Q30.97-14.28 30.53-14.97L30.53-14.97L30.53-14.97Q30.34-16.53 30.34-19.66L30.34-19.66L30.34-19.66Q30.34-21.97 30.44-24.59L30.44-24.59L30.44-24.59Q30.50-26.44 30.64-27.95L30.64-27.95L30.64-27.95Q30.78-29.47 31.06-31.63L31.06-31.63L31.06-31.63Q31.31-33.50 31.73-34.97L31.73-34.97L31.73-34.97Q32.16-36.44 32.81-37.91L32.81-37.91L32.81-37.91Q33.38-39.22 34.23-39.92L34.23-39.92L34.23-39.92Q35.09-40.63 36.16-40.63L36.16-40.63L36.78-40.56L37.38-40.50L37.38-40.50Q37.84-40.50 38.25-40.78L38.25-40.78L38.25-40.78Q38.66-41.06 38.66-41.47L38.66-41.47L38.66-41.47Q38.66-42.38 36.69-42.38L36.69-42.38L36.69-42.38Q36.31-42.38 35.69-42.31L35.69-42.31L35.69-42.31Q32.78-42 31.34-40.25L31.34-40.25L31.34-40.25Q29.91-38.50 29.44-36.06L29.44-36.06L29.44-36.06Q28.97-33.63 28.69-29.34L28.69-29.34L28.63-28.47L28.28-24.47L28.28-24.47Q27.97-21.38 27.97-19.47L27.97-19.47Z" fill="#ccc"/></g></g><style>text {
  font-size: 64px;
  font-family: Arial Black;
  dominant-baseline: central;
  text-anchor: middle;
}</style></svg>